<svg xmlns="http://www.w3.org/2000/svg" version="1.1" xmlns:xlink="http://www.w3.org/1999/xlink" xmlns:svgjs="http://svgjs.com/svgjs" width="1440" height="560" preserveAspectRatio="none" viewBox="0 0 1440 560"><g mask="url(&quot;#SvgjsMask1555&quot;)" fill="none"><rect width="1440" height="560" x="0" y="0" fill="rgba(54, 54, 54, 1)"></rect><g mask="url(&quot;#SvgjsMask1557&quot;)"><path d="M711 261L729 279L747 279L765 279L783 279M153 279L171 297L189 297L207 297L225 297M747 261L765 243L783 243L801 243L819 243L837 243L855 243L873 243L891 243L909 243L927 243L945 243L963 243L981 261L999 261L1017 261L1035 261L1053 261L1071 261M513 279L531 261L549 261M657 261L675 279L693 279L711 279L729 297L747 297L765 297L783 297L801 297L819 279L837 279L855 279L873 279L891 279L909 279L927 279L945 261L963 261M423 279L441 261L459 261L477 261L495 261M189 261L207 279L225 279L243 279M171 279L189 279M63 261L81 279M387 279L405 297L423 297L441 297M351 261L369 261L387 261L405 261M261 261L279 279M549 279L567 279L585 279M-9 279L9 261L27 261L45 261L63 261L81 261L99 261L117 261L135 261L153 279L171 279L189 261L207 261L225 261L243 261L261 261L279 261L297 261L315 261L333 261L351 261L369 279L387 279L405 279L423 279L441 279L459 279L477 279L495 279L513 279L531 279L549 279L567 261L585 261L603 261L621 261L639 261L657 261L675 261L693 261L711 261L729 261L747 261L765 261L783 261L801 261L819 261L837 261L855 261L873 261L891 261L909 261L927 261" stroke="url(#SvgjsLinearGradient1556)" stroke-width="3"></path><path d="M922.5 261 a4.5 4.5 0 1 0 9 0 a4.5 4.5 0 1 0 -9 0zM778.5 279 a4.5 4.5 0 1 0 9 0 a4.5 4.5 0 1 0 -9 0zM220.5 297 a4.5 4.5 0 1 0 9 0 a4.5 4.5 0 1 0 -9 0zM1066.5 261 a4.5 4.5 0 1 0 9 0 a4.5 4.5 0 1 0 -9 0zM544.5 261 a4.5 4.5 0 1 0 9 0 a4.5 4.5 0 1 0 -9 0zM958.5 261 a4.5 4.5 0 1 0 9 0 a4.5 4.5 0 1 0 -9 0zM490.5 261 a4.5 4.5 0 1 0 9 0 a4.5 4.5 0 1 0 -9 0zM238.5 279 a4.5 4.5 0 1 0 9 0 a4.5 4.5 0 1 0 -9 0zM184.5 279 a4.5 4.5 0 1 0 9 0 a4.5 4.5 0 1 0 -9 0zM76.5 279 a4.5 4.5 0 1 0 9 0 a4.5 4.5 0 1 0 -9 0zM436.5 297 a4.5 4.5 0 1 0 9 0 a4.5 4.5 0 1 0 -9 0zM400.5 261 a4.5 4.5 0 1 0 9 0 a4.5 4.5 0 1 0 -9 0zM274.5 279 a4.5 4.5 0 1 0 9 0 a4.5 4.5 0 1 0 -9 0zM580.5 279 a4.5 4.5 0 1 0 9 0 a4.5 4.5 0 1 0 -9 0z" fill="url(#SvgjsLinearGradient1556)"></path><path d="M9 315L27 297L45 297L63 297L81 297M-9 297L9 315L27 315L45 315" stroke="url(#SvgjsLinearGradient1556)" stroke-width="3"></path><path d="M40.5 315 a4.5 4.5 0 1 0 9 0 a4.5 4.5 0 1 0 -9 0zM76.5 297 a4.5 4.5 0 1 0 9 0 a4.5 4.5 0 1 0 -9 0z" fill="url(#SvgjsLinearGradient1556)"></path><path d="M351 243L369 225L387 225L405 225L423 207L441 207L459 207L477 207M981 207L999 225L1017 225L1035 225L1053 225L1071 225L1089 225L1107 225L1125 225L1143 225L1161 225L1179 225L1197 225L1215 225L1233 225L1251 225L1269 225L1287 225L1305 207L1323 207L1341 207L1359 207L1377 207L1395 207L1413 207M711 225L729 207L747 189L765 189L783 207L801 207M837 225L855 207L873 207L891 207L909 207L927 207L945 207M171 243L189 225L207 225L225 225L243 225L261 225L279 225L297 225L315 225M567 243L585 225L603 225L621 225L639 225L657 207L675 207L693 207L711 207L729 189M153 243L171 261M747 225L765 207M639 243L657 243L675 243L693 243L711 243L729 243L747 243M513 243L531 225L549 225L567 225M963 207L981 225L999 243L1017 243L1035 243L1053 243L1071 243M819 225L837 207M495 243L513 225L531 207M459 243L477 225L495 207L513 207M-9 261L9 243L27 243L45 243L63 243L81 243L99 243L117 243L135 243L153 243L171 243L189 243L207 243L225 243L243 243L261 243L279 243L297 243L315 243L333 243L351 243L369 243L387 243L405 243L423 243L441 243L459 243L477 243L495 243L513 243L531 243L549 243L567 243L585 243L603 243L621 243L639 243L657 225L675 225L693 225L711 225L729 225L747 225L765 225L783 225L801 225L819 225L837 225L855 225L873 225L891 225L909 225L927 225L945 225L963 207L981 207L999 207L1017 207L1035 207" stroke="url(#SvgjsLinearGradient1556)" stroke-width="3"></path><path d="M1030.5 207 a4.5 4.5 0 1 0 9 0 a4.5 4.5 0 1 0 -9 0zM472.5 207 a4.5 4.5 0 1 0 9 0 a4.5 4.5 0 1 0 -9 0zM1408.5 207 a4.5 4.5 0 1 0 9 0 a4.5 4.5 0 1 0 -9 0zM796.5 207 a4.5 4.5 0 1 0 9 0 a4.5 4.5 0 1 0 -9 0zM940.5 207 a4.5 4.5 0 1 0 9 0 a4.5 4.5 0 1 0 -9 0zM310.5 225 a4.5 4.5 0 1 0 9 0 a4.5 4.5 0 1 0 -9 0zM724.5 189 a4.5 4.5 0 1 0 9 0 a4.5 4.5 0 1 0 -9 0zM166.5 261 a4.5 4.5 0 1 0 9 0 a4.5 4.5 0 1 0 -9 0zM760.5 207 a4.5 4.5 0 1 0 9 0 a4.5 4.5 0 1 0 -9 0zM742.5 243 a4.5 4.5 0 1 0 9 0 a4.5 4.5 0 1 0 -9 0zM562.5 225 a4.5 4.5 0 1 0 9 0 a4.5 4.5 0 1 0 -9 0zM1066.5 243 a4.5 4.5 0 1 0 9 0 a4.5 4.5 0 1 0 -9 0zM832.5 207 a4.5 4.5 0 1 0 9 0 a4.5 4.5 0 1 0 -9 0zM526.5 207 a4.5 4.5 0 1 0 9 0 a4.5 4.5 0 1 0 -9 0zM508.5 207 a4.5 4.5 0 1 0 9 0 a4.5 4.5 0 1 0 -9 0z" fill="url(#SvgjsLinearGradient1556)"></path><path d="M711 315L729 333L747 333L765 351L783 369L801 369L819 369L837 369L855 369L873 369M621 315L639 333L657 333L675 333L693 333L711 333L729 351L747 351L765 369L783 387L801 387L819 387L837 387L855 387L873 387L891 387L909 387M315 315L333 333L351 333M459 297L477 315L495 315L513 315M171 315L189 333L207 333L225 333L243 333L261 333M531 297L549 315L567 315L585 315L603 315M99 315L117 297L135 297L153 297M243 315L261 297L279 297L297 297L315 297L333 297L351 297L369 297L387 297M675 315L693 297L711 297M765 315L783 333L801 333L819 333M279 315L297 333L315 333M-9 315L9 333L27 333L45 333L63 333L81 333L99 315L117 315L135 315L153 315L171 315L189 315L207 315L225 315L243 315L261 315L279 315L297 315L315 315L333 315L351 315L369 315L387 315L405 315L423 315L441 315L459 297L477 297L495 297L513 297L531 297L549 297L567 297L585 297L603 297L621 315L639 315L657 315L675 315L693 315L711 315L729 315L747 315L765 315L783 315" stroke="url(#SvgjsLinearGradient1556)" stroke-width="3"></path><path d="M778.5 315 a4.5 4.5 0 1 0 9 0 a4.5 4.5 0 1 0 -9 0zM868.5 369 a4.5 4.5 0 1 0 9 0 a4.5 4.5 0 1 0 -9 0zM904.5 387 a4.5 4.5 0 1 0 9 0 a4.5 4.5 0 1 0 -9 0zM346.5 333 a4.5 4.5 0 1 0 9 0 a4.5 4.5 0 1 0 -9 0zM508.5 315 a4.5 4.5 0 1 0 9 0 a4.5 4.5 0 1 0 -9 0zM256.5 333 a4.5 4.5 0 1 0 9 0 a4.5 4.5 0 1 0 -9 0zM598.5 315 a4.5 4.5 0 1 0 9 0 a4.5 4.5 0 1 0 -9 0zM148.5 297 a4.5 4.5 0 1 0 9 0 a4.5 4.5 0 1 0 -9 0zM382.5 297 a4.5 4.5 0 1 0 9 0 a4.5 4.5 0 1 0 -9 0zM706.5 297 a4.5 4.5 0 1 0 9 0 a4.5 4.5 0 1 0 -9 0zM814.5 333 a4.5 4.5 0 1 0 9 0 a4.5 4.5 0 1 0 -9 0zM310.5 333 a4.5 4.5 0 1 0 9 0 a4.5 4.5 0 1 0 -9 0z" fill="url(#SvgjsLinearGradient1556)"></path><path d="M207 207L225 189M153 225L171 225M333 207L351 225M-9 243L9 225L27 225L45 225L63 225L81 225L99 225L117 225L135 225L153 225L171 207L189 207L207 207L225 207L243 207L261 207L279 207L297 207L315 207L333 207L351 207L369 207L387 207" stroke="url(#SvgjsLinearGradient1556)" stroke-width="3"></path><path d="M382.5 207 a4.5 4.5 0 1 0 9 0 a4.5 4.5 0 1 0 -9 0zM220.5 189 a4.5 4.5 0 1 0 9 0 a4.5 4.5 0 1 0 -9 0zM166.5 225 a4.5 4.5 0 1 0 9 0 a4.5 4.5 0 1 0 -9 0zM346.5 225 a4.5 4.5 0 1 0 9 0 a4.5 4.5 0 1 0 -9 0z" fill="url(#SvgjsLinearGradient1556)"></path><path d="M531 333L549 351L567 351L585 351L603 351L621 351L639 351L657 351L675 351M279 351L297 369M207 351L225 369L243 369L261 369L279 369M441 333L459 351L477 351L495 351L513 351L531 351M189 351L207 369M135 351L153 333M99 351L117 333L135 333M153 351L171 369L189 369M-9 333L9 351L27 351L45 351L63 351L81 351L99 351L117 351L135 351L153 351L171 351L189 351L207 351L225 351L243 351L261 351L279 351L297 351L315 351L333 351L351 351L369 333L387 333L405 333L423 333L441 333L459 333L477 333L495 333L513 333L531 333L549 333L567 333L585 333L603 333" stroke="url(#SvgjsLinearGradient1556)" stroke-width="3"></path><path d="M598.5 333 a4.5 4.5 0 1 0 9 0 a4.5 4.5 0 1 0 -9 0zM670.5 351 a4.5 4.5 0 1 0 9 0 a4.5 4.5 0 1 0 -9 0zM292.5 369 a4.5 4.5 0 1 0 9 0 a4.5 4.5 0 1 0 -9 0zM274.5 369 a4.5 4.5 0 1 0 9 0 a4.5 4.5 0 1 0 -9 0zM526.5 351 a4.5 4.5 0 1 0 9 0 a4.5 4.5 0 1 0 -9 0zM202.5 369 a4.5 4.5 0 1 0 9 0 a4.5 4.5 0 1 0 -9 0zM148.5 333 a4.5 4.5 0 1 0 9 0 a4.5 4.5 0 1 0 -9 0zM130.5 333 a4.5 4.5 0 1 0 9 0 a4.5 4.5 0 1 0 -9 0zM184.5 369 a4.5 4.5 0 1 0 9 0 a4.5 4.5 0 1 0 -9 0z" fill="url(#SvgjsLinearGradient1556)"></path><path d="M117 207L135 207L153 207L171 189M-9 225L9 207L27 207L45 207L63 207L81 207L99 207L117 207L135 189" stroke="url(#SvgjsLinearGradient1556)" stroke-width="3"></path><path d="M130.5 189 a4.5 4.5 0 1 0 9 0 a4.5 4.5 0 1 0 -9 0zM166.5 189 a4.5 4.5 0 1 0 9 0 a4.5 4.5 0 1 0 -9 0z" fill="url(#SvgjsLinearGradient1556)"></path><path d="M657 405L675 387L693 387L711 387L729 387M1161 423L1179 405L1197 387L1215 387L1233 369L1251 369L1269 369L1287 369L1305 369L1323 369L1341 369L1359 369L1377 369L1395 369L1413 387M405 369L423 351L441 351M909 423L927 405L945 405L963 405L981 405L999 405L1017 405L1035 405L1053 405L1071 405L1089 405L1107 405M1215 423L1233 405L1251 405L1269 405L1287 405L1305 405L1323 405L1341 405L1359 387L1377 387L1395 387L1413 405M1035 423L1053 441L1071 441L1089 441L1107 441L1125 441M999 423L1017 441L1035 441L1053 459L1071 459L1089 459L1107 459L1125 459L1143 459L1161 459L1179 459L1197 459L1215 459L1233 459M1179 423L1197 441L1215 441M423 369L441 387L459 387M1287 441L1305 459L1323 459L1341 459L1359 459L1377 477L1395 477L1413 477M243 387L261 405L279 405L297 405L315 405L333 405L351 405L369 405L387 405L405 405L423 405L441 405L459 405L477 405L495 387L513 387L531 387L549 387L567 387L585 387L603 405L621 405L639 405M1143 423L1161 405L1179 387L1197 369L1215 369M1197 423L1215 405M639 387L657 387L675 369L693 369L711 369L729 369L747 369L765 387M1323 441L1341 441L1359 423L1377 423L1395 423L1413 423M837 423L855 405L873 405L891 405L909 405M297 387L315 387L333 387L351 387L369 387L387 387L405 387L423 387M1233 423L1251 441L1269 441L1287 459L1305 477L1323 477L1341 477L1359 477L1377 495L1395 495L1413 495M207 387L225 405L243 405M-9 351L9 369L27 369L45 369L63 369L81 369L99 369L117 369L135 369L153 387L171 387L189 387L207 387L225 387L243 387L261 387L279 387L297 387L315 369L333 369L351 369L369 369L387 369L405 369L423 369L441 369L459 369L477 369L495 369L513 369L531 369L549 369L567 369L585 369L603 387L621 387L639 387L657 405L675 405L693 405L711 405L729 405L747 405L765 405L783 405L801 405L819 405L837 423L855 423L873 423L891 423L909 423L927 423L945 423L963 423L981 423L999 423L1017 423L1035 423L1053 423L1071 423L1089 423L1107 423L1125 423L1143 423L1161 423L1179 423L1197 423L1215 423L1233 423L1251 423L1269 423L1287 441L1305 441L1323 441L1341 423L1359 405" stroke="url(#SvgjsLinearGradient1556)" stroke-width="3"></path><path d="M1354.5 405 a4.5 4.5 0 1 0 9 0 a4.5 4.5 0 1 0 -9 0zM724.5 387 a4.5 4.5 0 1 0 9 0 a4.5 4.5 0 1 0 -9 0zM1408.5 387 a4.5 4.5 0 1 0 9 0 a4.5 4.5 0 1 0 -9 0zM436.5 351 a4.5 4.5 0 1 0 9 0 a4.5 4.5 0 1 0 -9 0zM1102.5 405 a4.5 4.5 0 1 0 9 0 a4.5 4.5 0 1 0 -9 0zM1408.5 405 a4.5 4.5 0 1 0 9 0 a4.5 4.5 0 1 0 -9 0zM1120.5 441 a4.5 4.5 0 1 0 9 0 a4.5 4.5 0 1 0 -9 0zM1228.5 459 a4.5 4.5 0 1 0 9 0 a4.5 4.5 0 1 0 -9 0zM1210.5 441 a4.5 4.5 0 1 0 9 0 a4.5 4.5 0 1 0 -9 0zM454.5 387 a4.5 4.5 0 1 0 9 0 a4.5 4.5 0 1 0 -9 0zM1408.5 477 a4.5 4.5 0 1 0 9 0 a4.5 4.5 0 1 0 -9 0zM634.5 405 a4.5 4.5 0 1 0 9 0 a4.5 4.5 0 1 0 -9 0zM1210.5 369 a4.5 4.5 0 1 0 9 0 a4.5 4.5 0 1 0 -9 0zM1210.5 405 a4.5 4.5 0 1 0 9 0 a4.5 4.5 0 1 0 -9 0zM760.5 387 a4.5 4.5 0 1 0 9 0 a4.5 4.5 0 1 0 -9 0zM1408.5 423 a4.5 4.5 0 1 0 9 0 a4.5 4.5 0 1 0 -9 0zM904.5 405 a4.5 4.5 0 1 0 9 0 a4.5 4.5 0 1 0 -9 0zM418.5 387 a4.5 4.5 0 1 0 9 0 a4.5 4.5 0 1 0 -9 0zM1408.5 495 a4.5 4.5 0 1 0 9 0 a4.5 4.5 0 1 0 -9 0zM238.5 405 a4.5 4.5 0 1 0 9 0 a4.5 4.5 0 1 0 -9 0z" fill="url(#SvgjsLinearGradient1556)"></path><path d="M171 171L189 153L207 153L225 153M531 189L549 189L567 189L585 189L603 189L621 189L639 189L657 189M225 171L243 171M153 171L171 153M189 171L207 189M-9 207L9 189L27 189L45 189L63 189L81 189L99 189L117 189L135 171L153 171L171 171L189 171L207 171L225 171L243 189L261 189L279 189L297 189L315 189L333 189L351 189L369 189L387 189L405 189L423 189L441 189L459 189L477 189L495 189L513 189L531 189L549 207L567 207L585 207" stroke="url(#SvgjsLinearGradient1556)" stroke-width="3"></path><path d="M580.5 207 a4.5 4.5 0 1 0 9 0 a4.5 4.5 0 1 0 -9 0zM220.5 153 a4.5 4.5 0 1 0 9 0 a4.5 4.5 0 1 0 -9 0zM652.5 189 a4.5 4.5 0 1 0 9 0 a4.5 4.5 0 1 0 -9 0zM238.5 171 a4.5 4.5 0 1 0 9 0 a4.5 4.5 0 1 0 -9 0zM166.5 153 a4.5 4.5 0 1 0 9 0 a4.5 4.5 0 1 0 -9 0zM202.5 189 a4.5 4.5 0 1 0 9 0 a4.5 4.5 0 1 0 -9 0z" fill="url(#SvgjsLinearGradient1556)"></path><path d="M783 423L801 441L819 441M315 441L333 423M369 423L387 441L405 441L423 441L441 441L459 441L477 441M513 423L531 441L549 459L567 459L585 459M621 423L639 441L657 441L675 441L693 441L711 441L729 441L747 441L765 441L783 441L801 459M963 441L981 459L999 459L1017 459L1035 459M333 441L351 441L369 441M603 423L621 441L639 459L657 459M189 423L207 405M279 441L297 423L315 423M171 405L189 405M567 423L585 405M585 423L603 441L621 459M261 423L279 423M-9 369L9 387L27 387L45 387L63 387L81 387L99 405L117 405L135 405L153 405L171 405L189 423L207 423L225 423L243 423L261 423L279 441L297 441L315 441L333 441L351 423L369 423L387 423L405 423L423 423L441 423L459 423L477 423L495 423L513 423L531 423L549 423L567 423L585 423L603 423L621 423L639 423L657 423L675 423L693 423L711 423L729 423L747 423L765 423L783 423L801 423L819 423L837 441L855 441L873 441L891 441L909 441L927 441L945 441L963 441L981 441" stroke="url(#SvgjsLinearGradient1556)" stroke-width="3"></path><path d="M976.5 441 a4.5 4.5 0 1 0 9 0 a4.5 4.5 0 1 0 -9 0zM814.5 441 a4.5 4.5 0 1 0 9 0 a4.5 4.5 0 1 0 -9 0zM328.5 423 a4.5 4.5 0 1 0 9 0 a4.5 4.5 0 1 0 -9 0zM472.5 441 a4.5 4.5 0 1 0 9 0 a4.5 4.5 0 1 0 -9 0zM580.5 459 a4.5 4.5 0 1 0 9 0 a4.5 4.5 0 1 0 -9 0zM796.5 459 a4.5 4.5 0 1 0 9 0 a4.5 4.5 0 1 0 -9 0zM1030.5 459 a4.5 4.5 0 1 0 9 0 a4.5 4.5 0 1 0 -9 0zM364.5 441 a4.5 4.5 0 1 0 9 0 a4.5 4.5 0 1 0 -9 0zM652.5 459 a4.5 4.5 0 1 0 9 0 a4.5 4.5 0 1 0 -9 0zM202.5 405 a4.5 4.5 0 1 0 9 0 a4.5 4.5 0 1 0 -9 0zM310.5 423 a4.5 4.5 0 1 0 9 0 a4.5 4.5 0 1 0 -9 0zM184.5 405 a4.5 4.5 0 1 0 9 0 a4.5 4.5 0 1 0 -9 0zM580.5 405 a4.5 4.5 0 1 0 9 0 a4.5 4.5 0 1 0 -9 0zM616.5 459 a4.5 4.5 0 1 0 9 0 a4.5 4.5 0 1 0 -9 0zM274.5 423 a4.5 4.5 0 1 0 9 0 a4.5 4.5 0 1 0 -9 0z" fill="url(#SvgjsLinearGradient1556)"></path><path d="M837 189L855 171M279 171L297 153L315 153L333 153M387 171L405 153L423 153L441 153L459 153L477 153L495 153L513 153M693 171L711 153L729 153L747 153L765 153L783 153L801 153L819 153L837 153L855 153L873 153L891 153L909 153L927 153L945 135L963 135M981 189L999 171L1017 171L1035 153L1053 153L1071 153L1089 153L1107 153L1125 153L1143 153M1053 171L1071 189L1089 189L1107 189L1125 189L1143 189L1161 207L1179 207M585 171L603 153L621 153L639 153L657 153L675 153L693 153L711 135L729 135L747 135L765 135L783 135L801 135L819 135M945 189L963 171L981 171L999 153L1017 153L1035 135L1053 135L1071 135L1089 135L1107 135L1125 135L1143 135L1161 135L1179 135L1197 135M927 189L945 171L963 153L981 135L999 135L1017 135L1035 117L1053 117L1071 117L1089 117M891 189L909 171M783 171L801 189L819 189M675 171L693 189M549 171L567 153L585 153L603 135L621 135M873 189L891 171M243 153L261 153L279 153L297 135M-9 189L9 171L27 171L45 171L63 171L81 171L99 171L117 171L135 153L153 135L171 135L189 135L207 135L225 135L243 153L261 171L279 171L297 171L315 171L333 171L351 171L369 171L387 171L405 171L423 171L441 171L459 171L477 171L495 171L513 171L531 171L549 171L567 171L585 171L603 171L621 171L639 171L657 171L675 171L693 171L711 171L729 171L747 171L765 171L783 171L801 171L819 171L837 189L855 189L873 189L891 189L909 189L927 189L945 189L963 189L981 189L999 189L1017 189L1035 171L1053 171L1071 171L1089 171" stroke="url(#SvgjsLinearGradient1556)" stroke-width="3"></path><path d="M1084.5 171 a4.5 4.5 0 1 0 9 0 a4.5 4.5 0 1 0 -9 0zM850.5 171 a4.5 4.5 0 1 0 9 0 a4.5 4.5 0 1 0 -9 0zM328.5 153 a4.5 4.5 0 1 0 9 0 a4.5 4.5 0 1 0 -9 0zM508.5 153 a4.5 4.5 0 1 0 9 0 a4.5 4.5 0 1 0 -9 0zM958.5 135 a4.5 4.5 0 1 0 9 0 a4.5 4.5 0 1 0 -9 0zM1138.5 153 a4.5 4.5 0 1 0 9 0 a4.5 4.5 0 1 0 -9 0zM1174.5 207 a4.5 4.5 0 1 0 9 0 a4.5 4.5 0 1 0 -9 0zM814.5 135 a4.5 4.5 0 1 0 9 0 a4.5 4.5 0 1 0 -9 0zM1192.5 135 a4.5 4.5 0 1 0 9 0 a4.5 4.5 0 1 0 -9 0zM1084.5 117 a4.5 4.5 0 1 0 9 0 a4.5 4.5 0 1 0 -9 0zM904.5 171 a4.5 4.5 0 1 0 9 0 a4.5 4.5 0 1 0 -9 0zM814.5 189 a4.5 4.5 0 1 0 9 0 a4.5 4.5 0 1 0 -9 0zM688.5 189 a4.5 4.5 0 1 0 9 0 a4.5 4.5 0 1 0 -9 0zM616.5 135 a4.5 4.5 0 1 0 9 0 a4.5 4.5 0 1 0 -9 0zM886.5 171 a4.5 4.5 0 1 0 9 0 a4.5 4.5 0 1 0 -9 0zM292.5 135 a4.5 4.5 0 1 0 9 0 a4.5 4.5 0 1 0 -9 0z" fill="url(#SvgjsLinearGradient1556)"></path><path d="M441 459L459 459L477 459L495 441L513 441L531 459M855 459L873 477L891 477M963 495L981 477L999 477M927 477L945 477L963 477M891 459L909 459L927 459L945 459M729 477L747 459L765 459L783 459M999 495L1017 513L1035 513L1053 513L1071 513M801 477L819 477L837 477L855 477M711 477L729 459M333 459L351 477L369 477L387 477L405 477L423 477M675 477L693 459L711 459M1053 477L1071 495L1089 495L1107 495M153 423L171 441M1017 495L1035 477M495 477L513 459M-9 387L9 405L27 405L45 405L63 405L81 405L99 423L117 423L135 423L153 423L171 423L189 441L207 441L225 441L243 441L261 441L279 459L297 459L315 459L333 459L351 459L369 459L387 459L405 459L423 459L441 459L459 477L477 477L495 477L513 477L531 477L549 477L567 477L585 477L603 477L621 477L639 477L657 477L675 477L693 477L711 477L729 477L747 477L765 477L783 477L801 477L819 459L837 459L855 459L873 459L891 459L909 477L927 477L945 495L963 495L981 495L999 495L1017 495L1035 495L1053 477L1071 477L1089 477" stroke="url(#SvgjsLinearGradient1556)" stroke-width="3"></path><path d="M1084.5 477 a4.5 4.5 0 1 0 9 0 a4.5 4.5 0 1 0 -9 0zM526.5 459 a4.5 4.5 0 1 0 9 0 a4.5 4.5 0 1 0 -9 0zM886.5 477 a4.5 4.5 0 1 0 9 0 a4.5 4.5 0 1 0 -9 0zM994.5 477 a4.5 4.5 0 1 0 9 0 a4.5 4.5 0 1 0 -9 0zM958.5 477 a4.5 4.5 0 1 0 9 0 a4.5 4.5 0 1 0 -9 0zM940.5 459 a4.5 4.5 0 1 0 9 0 a4.5 4.5 0 1 0 -9 0zM778.5 459 a4.5 4.5 0 1 0 9 0 a4.5 4.5 0 1 0 -9 0zM1066.5 513 a4.5 4.5 0 1 0 9 0 a4.5 4.5 0 1 0 -9 0zM850.5 477 a4.5 4.5 0 1 0 9 0 a4.5 4.5 0 1 0 -9 0zM724.5 459 a4.5 4.5 0 1 0 9 0 a4.5 4.5 0 1 0 -9 0zM418.5 477 a4.5 4.5 0 1 0 9 0 a4.5 4.5 0 1 0 -9 0zM706.5 459 a4.5 4.5 0 1 0 9 0 a4.5 4.5 0 1 0 -9 0zM1102.5 495 a4.5 4.5 0 1 0 9 0 a4.5 4.5 0 1 0 -9 0zM166.5 441 a4.5 4.5 0 1 0 9 0 a4.5 4.5 0 1 0 -9 0zM1030.5 477 a4.5 4.5 0 1 0 9 0 a4.5 4.5 0 1 0 -9 0zM508.5 459 a4.5 4.5 0 1 0 9 0 a4.5 4.5 0 1 0 -9 0z" fill="url(#SvgjsLinearGradient1556)"></path><path d="M297 117L315 117L333 117L351 117L369 117L387 117L405 117L423 117M441 81L459 99L477 99L495 99L513 99L531 99M531 81L549 81L567 81L585 81L603 81L621 81L639 81L657 81L675 81M567 63L585 45L603 45L621 45L639 45M207 117L225 99M27 153L45 135L63 135L81 135M243 117L261 135M405 81L423 99L441 99L459 117L477 117L495 117L513 117M-9 171L9 153L27 153L45 153L63 153L81 153L99 153L117 153L135 135L153 117L171 117L189 117L207 117L225 117L243 117L261 117L279 117L297 117L315 99L333 99L351 99L369 99L387 81L405 81L423 81L441 81L459 81L477 81L495 81L513 81L531 81L549 63L567 63L585 63" stroke="url(#SvgjsLinearGradient1556)" stroke-width="3"></path><path d="M580.5 63 a4.5 4.5 0 1 0 9 0 a4.5 4.5 0 1 0 -9 0zM418.5 117 a4.5 4.5 0 1 0 9 0 a4.5 4.5 0 1 0 -9 0zM526.5 99 a4.5 4.5 0 1 0 9 0 a4.5 4.5 0 1 0 -9 0zM670.5 81 a4.5 4.5 0 1 0 9 0 a4.5 4.5 0 1 0 -9 0zM634.5 45 a4.5 4.5 0 1 0 9 0 a4.5 4.5 0 1 0 -9 0zM220.5 99 a4.5 4.5 0 1 0 9 0 a4.5 4.5 0 1 0 -9 0zM76.5 135 a4.5 4.5 0 1 0 9 0 a4.5 4.5 0 1 0 -9 0zM256.5 135 a4.5 4.5 0 1 0 9 0 a4.5 4.5 0 1 0 -9 0zM508.5 117 a4.5 4.5 0 1 0 9 0 a4.5 4.5 0 1 0 -9 0z" fill="url(#SvgjsLinearGradient1556)"></path><path d="M189 459L207 477L225 477L243 477M315 495L333 513L351 513L369 513L387 531L405 531L423 531L441 531L459 531L477 531L495 531L513 531M279 477L297 495L315 513L333 531L351 531L369 531M945 513L963 531L981 531L999 531L1017 531M567 495L585 513M855 495L873 513L891 513L909 513L927 513M783 495L801 513L819 513L837 513M531 495L549 513L567 513L585 531L603 531L621 531L639 531L657 531L675 531L693 531M621 495L639 513L657 513L675 513L693 513L711 513L729 513L747 513L765 513L783 513M603 495L621 513M423 513L441 495M459 495L477 513L495 513M135 441L153 441M405 513L423 495M-9 405L9 423L27 423L45 423L63 423L81 423L99 441L117 441L135 441L153 459L171 459L189 459L207 459L225 459L243 459L261 459L279 477L297 477L315 495L333 495L351 495L369 495L387 513L405 513L423 513L441 513L459 495L477 495L495 495L513 495L531 495L549 495L567 495L585 495L603 495L621 495L639 495L657 495L675 495L693 495L711 495L729 495L747 495L765 495L783 495L801 495L819 495L837 495L855 495L873 495L891 495L909 495L927 495L945 513L963 513L981 513" stroke="url(#SvgjsLinearGradient1556)" stroke-width="3"></path><path d="M976.5 513 a4.5 4.5 0 1 0 9 0 a4.5 4.5 0 1 0 -9 0zM238.5 477 a4.5 4.5 0 1 0 9 0 a4.5 4.5 0 1 0 -9 0zM508.5 531 a4.5 4.5 0 1 0 9 0 a4.5 4.5 0 1 0 -9 0zM364.5 531 a4.5 4.5 0 1 0 9 0 a4.5 4.5 0 1 0 -9 0zM1012.5 531 a4.5 4.5 0 1 0 9 0 a4.5 4.5 0 1 0 -9 0zM580.5 513 a4.5 4.5 0 1 0 9 0 a4.5 4.5 0 1 0 -9 0zM922.5 513 a4.5 4.5 0 1 0 9 0 a4.5 4.5 0 1 0 -9 0zM832.5 513 a4.5 4.5 0 1 0 9 0 a4.5 4.5 0 1 0 -9 0zM688.5 531 a4.5 4.5 0 1 0 9 0 a4.5 4.5 0 1 0 -9 0zM778.5 513 a4.5 4.5 0 1 0 9 0 a4.5 4.5 0 1 0 -9 0zM616.5 513 a4.5 4.5 0 1 0 9 0 a4.5 4.5 0 1 0 -9 0zM436.5 495 a4.5 4.5 0 1 0 9 0 a4.5 4.5 0 1 0 -9 0zM490.5 513 a4.5 4.5 0 1 0 9 0 a4.5 4.5 0 1 0 -9 0zM148.5 441 a4.5 4.5 0 1 0 9 0 a4.5 4.5 0 1 0 -9 0zM418.5 495 a4.5 4.5 0 1 0 9 0 a4.5 4.5 0 1 0 -9 0z" fill="url(#SvgjsLinearGradient1556)"></path><path d="M189 99L207 99M171 99L189 81L207 63L225 63L243 63L261 63L279 63M27 117L45 99M99 117L117 135M117 117L135 99L153 81L171 63M81 117L99 99L117 99L135 81L153 63M441 63L459 45L477 45L495 63L513 63L531 63M-9 153L9 135L27 117L45 117L63 117L81 117L99 117L117 117L135 117L153 99L171 99L189 99L207 81L225 81L243 81L261 99L279 99L297 99L315 81L333 81L351 81L369 81L387 63L405 63L423 63L441 63L459 63L477 63" stroke="url(#SvgjsLinearGradient1556)" stroke-width="3"></path><path d="M472.5 63 a4.5 4.5 0 1 0 9 0 a4.5 4.5 0 1 0 -9 0zM202.5 99 a4.5 4.5 0 1 0 9 0 a4.5 4.5 0 1 0 -9 0zM274.5 63 a4.5 4.5 0 1 0 9 0 a4.5 4.5 0 1 0 -9 0zM40.5 99 a4.5 4.5 0 1 0 9 0 a4.5 4.5 0 1 0 -9 0zM112.5 135 a4.5 4.5 0 1 0 9 0 a4.5 4.5 0 1 0 -9 0zM166.5 63 a4.5 4.5 0 1 0 9 0 a4.5 4.5 0 1 0 -9 0zM148.5 63 a4.5 4.5 0 1 0 9 0 a4.5 4.5 0 1 0 -9 0zM526.5 63 a4.5 4.5 0 1 0 9 0 a4.5 4.5 0 1 0 -9 0z" fill="url(#SvgjsLinearGradient1556)"></path></g></g><defs><mask id="SvgjsMask1555"><rect width="1440" height="560" fill="#ffffff"></rect></mask><linearGradient x1="220.03199999999998" y1="780.024" x2="1219.9679999999998" y2="-220.02399999999997" gradientUnits="userSpaceOnUse" id="SvgjsLinearGradient1556"><stop stop-color="rgba(58, 124, 195, 1)" offset="0.3"></stop><stop stop-color="rgba(0, 0, 0, 1)" offset="0.5"></stop><stop stop-color="rgba(58, 124, 195, 1)" offset="0.71"></stop></linearGradient><mask id="SvgjsMask1557"><rect width="1440" height="560" fill="white"></rect><path d="M924.75 261 a2.25 2.25 0 1 0 4.5 0 a2.25 2.25 0 1 0 -4.5 0zM780.75 279 a2.25 2.25 0 1 0 4.5 0 a2.25 2.25 0 1 0 -4.5 0zM222.75 297 a2.25 2.25 0 1 0 4.5 0 a2.25 2.25 0 1 0 -4.5 0zM1068.75 261 a2.25 2.25 0 1 0 4.5 0 a2.25 2.25 0 1 0 -4.5 0zM546.75 261 a2.25 2.25 0 1 0 4.5 0 a2.25 2.25 0 1 0 -4.5 0zM960.75 261 a2.25 2.25 0 1 0 4.5 0 a2.25 2.25 0 1 0 -4.5 0zM492.75 261 a2.25 2.25 0 1 0 4.5 0 a2.25 2.25 0 1 0 -4.5 0zM240.75 279 a2.25 2.25 0 1 0 4.5 0 a2.25 2.25 0 1 0 -4.5 0zM186.75 279 a2.25 2.25 0 1 0 4.5 0 a2.25 2.25 0 1 0 -4.5 0zM78.75 279 a2.25 2.25 0 1 0 4.5 0 a2.25 2.25 0 1 0 -4.5 0zM438.75 297 a2.25 2.25 0 1 0 4.5 0 a2.25 2.25 0 1 0 -4.5 0zM402.75 261 a2.25 2.25 0 1 0 4.5 0 a2.25 2.25 0 1 0 -4.5 0zM276.75 279 a2.25 2.25 0 1 0 4.5 0 a2.25 2.25 0 1 0 -4.5 0zM582.75 279 a2.25 2.25 0 1 0 4.5 0 a2.25 2.25 0 1 0 -4.5 0z" fill="black"></path><path d="M42.75 315 a2.25 2.25 0 1 0 4.5 0 a2.25 2.25 0 1 0 -4.5 0zM78.75 297 a2.25 2.25 0 1 0 4.5 0 a2.25 2.25 0 1 0 -4.5 0z" fill="black"></path><path d="M1032.75 207 a2.25 2.25 0 1 0 4.5 0 a2.25 2.25 0 1 0 -4.5 0zM474.75 207 a2.25 2.25 0 1 0 4.5 0 a2.25 2.25 0 1 0 -4.5 0zM1410.75 207 a2.25 2.25 0 1 0 4.5 0 a2.25 2.25 0 1 0 -4.5 0zM798.75 207 a2.25 2.25 0 1 0 4.5 0 a2.25 2.25 0 1 0 -4.5 0zM942.75 207 a2.25 2.25 0 1 0 4.5 0 a2.25 2.25 0 1 0 -4.5 0zM312.75 225 a2.25 2.25 0 1 0 4.5 0 a2.25 2.25 0 1 0 -4.5 0zM726.75 189 a2.25 2.25 0 1 0 4.5 0 a2.25 2.25 0 1 0 -4.5 0zM168.75 261 a2.25 2.25 0 1 0 4.5 0 a2.25 2.25 0 1 0 -4.5 0zM762.75 207 a2.25 2.25 0 1 0 4.5 0 a2.25 2.25 0 1 0 -4.5 0zM744.75 243 a2.25 2.25 0 1 0 4.5 0 a2.25 2.25 0 1 0 -4.5 0zM564.75 225 a2.25 2.25 0 1 0 4.5 0 a2.25 2.25 0 1 0 -4.5 0zM1068.75 243 a2.25 2.25 0 1 0 4.5 0 a2.25 2.25 0 1 0 -4.5 0zM834.75 207 a2.25 2.25 0 1 0 4.5 0 a2.25 2.25 0 1 0 -4.5 0zM528.75 207 a2.25 2.25 0 1 0 4.5 0 a2.25 2.25 0 1 0 -4.5 0zM510.75 207 a2.25 2.25 0 1 0 4.5 0 a2.25 2.25 0 1 0 -4.5 0z" fill="black"></path><path d="M780.75 315 a2.25 2.25 0 1 0 4.5 0 a2.25 2.25 0 1 0 -4.5 0zM870.75 369 a2.25 2.25 0 1 0 4.5 0 a2.25 2.25 0 1 0 -4.5 0zM906.75 387 a2.25 2.25 0 1 0 4.5 0 a2.25 2.25 0 1 0 -4.5 0zM348.75 333 a2.25 2.25 0 1 0 4.5 0 a2.25 2.25 0 1 0 -4.5 0zM510.75 315 a2.25 2.25 0 1 0 4.5 0 a2.25 2.25 0 1 0 -4.5 0zM258.75 333 a2.25 2.25 0 1 0 4.5 0 a2.25 2.25 0 1 0 -4.5 0zM600.75 315 a2.25 2.25 0 1 0 4.5 0 a2.25 2.25 0 1 0 -4.5 0zM150.75 297 a2.25 2.25 0 1 0 4.5 0 a2.25 2.25 0 1 0 -4.5 0zM384.75 297 a2.25 2.25 0 1 0 4.5 0 a2.25 2.25 0 1 0 -4.5 0zM708.75 297 a2.25 2.25 0 1 0 4.5 0 a2.25 2.25 0 1 0 -4.5 0zM816.75 333 a2.25 2.25 0 1 0 4.5 0 a2.25 2.25 0 1 0 -4.5 0zM312.75 333 a2.25 2.25 0 1 0 4.5 0 a2.25 2.25 0 1 0 -4.5 0z" fill="black"></path><path d="M384.75 207 a2.25 2.25 0 1 0 4.5 0 a2.25 2.25 0 1 0 -4.5 0zM222.75 189 a2.25 2.25 0 1 0 4.5 0 a2.25 2.25 0 1 0 -4.5 0zM168.75 225 a2.25 2.25 0 1 0 4.5 0 a2.25 2.25 0 1 0 -4.5 0zM348.75 225 a2.25 2.25 0 1 0 4.5 0 a2.25 2.25 0 1 0 -4.5 0z" fill="black"></path><path d="M600.75 333 a2.25 2.25 0 1 0 4.5 0 a2.25 2.25 0 1 0 -4.5 0zM672.75 351 a2.25 2.25 0 1 0 4.5 0 a2.25 2.25 0 1 0 -4.5 0zM294.75 369 a2.25 2.25 0 1 0 4.5 0 a2.25 2.25 0 1 0 -4.5 0zM276.75 369 a2.25 2.25 0 1 0 4.5 0 a2.25 2.25 0 1 0 -4.5 0zM528.75 351 a2.25 2.25 0 1 0 4.5 0 a2.25 2.25 0 1 0 -4.5 0zM204.75 369 a2.25 2.25 0 1 0 4.5 0 a2.25 2.25 0 1 0 -4.5 0zM150.75 333 a2.25 2.25 0 1 0 4.5 0 a2.25 2.25 0 1 0 -4.5 0zM132.75 333 a2.25 2.25 0 1 0 4.5 0 a2.25 2.25 0 1 0 -4.5 0zM186.75 369 a2.25 2.25 0 1 0 4.5 0 a2.25 2.25 0 1 0 -4.5 0z" fill="black"></path><path d="M132.75 189 a2.25 2.25 0 1 0 4.5 0 a2.25 2.25 0 1 0 -4.5 0zM168.75 189 a2.25 2.25 0 1 0 4.5 0 a2.25 2.25 0 1 0 -4.5 0z" fill="black"></path><path d="M1356.75 405 a2.25 2.25 0 1 0 4.5 0 a2.25 2.25 0 1 0 -4.5 0zM726.75 387 a2.25 2.25 0 1 0 4.5 0 a2.25 2.25 0 1 0 -4.5 0zM1410.75 387 a2.25 2.25 0 1 0 4.5 0 a2.25 2.25 0 1 0 -4.5 0zM438.75 351 a2.25 2.25 0 1 0 4.5 0 a2.25 2.25 0 1 0 -4.5 0zM1104.75 405 a2.25 2.25 0 1 0 4.5 0 a2.25 2.25 0 1 0 -4.5 0zM1410.75 405 a2.25 2.25 0 1 0 4.5 0 a2.25 2.25 0 1 0 -4.5 0zM1122.75 441 a2.25 2.25 0 1 0 4.5 0 a2.25 2.25 0 1 0 -4.5 0zM1230.75 459 a2.25 2.25 0 1 0 4.5 0 a2.25 2.25 0 1 0 -4.5 0zM1212.75 441 a2.25 2.25 0 1 0 4.5 0 a2.25 2.25 0 1 0 -4.5 0zM456.75 387 a2.25 2.25 0 1 0 4.5 0 a2.25 2.25 0 1 0 -4.5 0zM1410.75 477 a2.25 2.25 0 1 0 4.5 0 a2.25 2.25 0 1 0 -4.5 0zM636.75 405 a2.25 2.25 0 1 0 4.5 0 a2.25 2.25 0 1 0 -4.5 0zM1212.75 369 a2.25 2.25 0 1 0 4.5 0 a2.25 2.25 0 1 0 -4.5 0zM1212.75 405 a2.25 2.25 0 1 0 4.5 0 a2.25 2.25 0 1 0 -4.5 0zM762.75 387 a2.25 2.25 0 1 0 4.5 0 a2.25 2.25 0 1 0 -4.5 0zM1410.75 423 a2.25 2.25 0 1 0 4.5 0 a2.25 2.25 0 1 0 -4.5 0zM906.75 405 a2.25 2.25 0 1 0 4.5 0 a2.25 2.25 0 1 0 -4.5 0zM420.75 387 a2.25 2.25 0 1 0 4.5 0 a2.25 2.25 0 1 0 -4.5 0zM1410.75 495 a2.25 2.25 0 1 0 4.5 0 a2.25 2.25 0 1 0 -4.5 0zM240.75 405 a2.25 2.25 0 1 0 4.5 0 a2.25 2.25 0 1 0 -4.5 0z" fill="black"></path><path d="M582.75 207 a2.25 2.25 0 1 0 4.5 0 a2.25 2.25 0 1 0 -4.5 0zM222.75 153 a2.25 2.25 0 1 0 4.5 0 a2.25 2.25 0 1 0 -4.5 0zM654.75 189 a2.25 2.25 0 1 0 4.5 0 a2.25 2.25 0 1 0 -4.5 0zM240.75 171 a2.25 2.25 0 1 0 4.5 0 a2.25 2.25 0 1 0 -4.5 0zM168.75 153 a2.25 2.25 0 1 0 4.5 0 a2.25 2.25 0 1 0 -4.5 0zM204.75 189 a2.25 2.25 0 1 0 4.5 0 a2.25 2.25 0 1 0 -4.5 0z" fill="black"></path><path d="M978.75 441 a2.25 2.25 0 1 0 4.5 0 a2.25 2.25 0 1 0 -4.5 0zM816.75 441 a2.25 2.25 0 1 0 4.5 0 a2.25 2.25 0 1 0 -4.5 0zM330.75 423 a2.25 2.25 0 1 0 4.5 0 a2.25 2.25 0 1 0 -4.5 0zM474.75 441 a2.25 2.25 0 1 0 4.5 0 a2.25 2.25 0 1 0 -4.5 0zM582.75 459 a2.25 2.25 0 1 0 4.5 0 a2.25 2.25 0 1 0 -4.5 0zM798.75 459 a2.25 2.25 0 1 0 4.5 0 a2.25 2.25 0 1 0 -4.5 0zM1032.75 459 a2.25 2.25 0 1 0 4.5 0 a2.25 2.25 0 1 0 -4.5 0zM366.75 441 a2.25 2.25 0 1 0 4.5 0 a2.25 2.25 0 1 0 -4.5 0zM654.75 459 a2.25 2.25 0 1 0 4.5 0 a2.25 2.25 0 1 0 -4.5 0zM204.75 405 a2.25 2.25 0 1 0 4.5 0 a2.25 2.25 0 1 0 -4.5 0zM312.75 423 a2.25 2.25 0 1 0 4.5 0 a2.25 2.25 0 1 0 -4.5 0zM186.75 405 a2.25 2.25 0 1 0 4.5 0 a2.25 2.25 0 1 0 -4.5 0zM582.75 405 a2.25 2.25 0 1 0 4.5 0 a2.25 2.25 0 1 0 -4.5 0zM618.75 459 a2.25 2.25 0 1 0 4.5 0 a2.25 2.25 0 1 0 -4.5 0zM276.75 423 a2.25 2.25 0 1 0 4.5 0 a2.25 2.25 0 1 0 -4.5 0z" fill="black"></path><path d="M1086.75 171 a2.25 2.25 0 1 0 4.5 0 a2.25 2.25 0 1 0 -4.5 0zM852.75 171 a2.25 2.25 0 1 0 4.5 0 a2.25 2.25 0 1 0 -4.5 0zM330.75 153 a2.25 2.25 0 1 0 4.5 0 a2.25 2.25 0 1 0 -4.5 0zM510.75 153 a2.25 2.25 0 1 0 4.5 0 a2.25 2.25 0 1 0 -4.5 0zM960.75 135 a2.25 2.25 0 1 0 4.5 0 a2.25 2.25 0 1 0 -4.5 0zM1140.75 153 a2.25 2.25 0 1 0 4.5 0 a2.25 2.25 0 1 0 -4.5 0zM1176.75 207 a2.25 2.25 0 1 0 4.5 0 a2.25 2.25 0 1 0 -4.5 0zM816.75 135 a2.25 2.25 0 1 0 4.5 0 a2.25 2.25 0 1 0 -4.5 0zM1194.75 135 a2.25 2.25 0 1 0 4.5 0 a2.25 2.25 0 1 0 -4.5 0zM1086.75 117 a2.25 2.25 0 1 0 4.5 0 a2.25 2.25 0 1 0 -4.5 0zM906.75 171 a2.25 2.25 0 1 0 4.5 0 a2.25 2.25 0 1 0 -4.5 0zM816.75 189 a2.25 2.25 0 1 0 4.5 0 a2.25 2.25 0 1 0 -4.5 0zM690.75 189 a2.25 2.25 0 1 0 4.5 0 a2.25 2.25 0 1 0 -4.5 0zM618.75 135 a2.25 2.25 0 1 0 4.5 0 a2.25 2.25 0 1 0 -4.5 0zM888.75 171 a2.25 2.25 0 1 0 4.5 0 a2.25 2.25 0 1 0 -4.5 0zM294.75 135 a2.25 2.25 0 1 0 4.5 0 a2.25 2.25 0 1 0 -4.5 0z" fill="black"></path><path d="M1086.75 477 a2.25 2.25 0 1 0 4.5 0 a2.25 2.25 0 1 0 -4.5 0zM528.75 459 a2.25 2.25 0 1 0 4.5 0 a2.25 2.25 0 1 0 -4.5 0zM888.75 477 a2.25 2.25 0 1 0 4.5 0 a2.25 2.25 0 1 0 -4.5 0zM996.75 477 a2.25 2.25 0 1 0 4.5 0 a2.25 2.25 0 1 0 -4.5 0zM960.75 477 a2.25 2.25 0 1 0 4.5 0 a2.25 2.25 0 1 0 -4.5 0zM942.75 459 a2.25 2.25 0 1 0 4.5 0 a2.25 2.25 0 1 0 -4.5 0zM780.75 459 a2.25 2.25 0 1 0 4.5 0 a2.25 2.25 0 1 0 -4.5 0zM1068.75 513 a2.25 2.25 0 1 0 4.5 0 a2.25 2.25 0 1 0 -4.5 0zM852.75 477 a2.25 2.25 0 1 0 4.5 0 a2.25 2.25 0 1 0 -4.5 0zM726.75 459 a2.25 2.25 0 1 0 4.5 0 a2.25 2.25 0 1 0 -4.5 0zM420.75 477 a2.25 2.25 0 1 0 4.5 0 a2.25 2.25 0 1 0 -4.5 0zM708.75 459 a2.25 2.25 0 1 0 4.5 0 a2.25 2.25 0 1 0 -4.5 0zM1104.75 495 a2.25 2.25 0 1 0 4.5 0 a2.25 2.25 0 1 0 -4.5 0zM168.75 441 a2.25 2.25 0 1 0 4.5 0 a2.25 2.25 0 1 0 -4.5 0zM1032.75 477 a2.25 2.25 0 1 0 4.5 0 a2.25 2.25 0 1 0 -4.5 0zM510.75 459 a2.25 2.25 0 1 0 4.5 0 a2.25 2.25 0 1 0 -4.5 0z" fill="black"></path><path d="M582.75 63 a2.25 2.25 0 1 0 4.5 0 a2.25 2.25 0 1 0 -4.5 0zM420.75 117 a2.25 2.25 0 1 0 4.5 0 a2.25 2.25 0 1 0 -4.5 0zM528.75 99 a2.25 2.25 0 1 0 4.5 0 a2.25 2.25 0 1 0 -4.5 0zM672.75 81 a2.25 2.25 0 1 0 4.5 0 a2.25 2.25 0 1 0 -4.5 0zM636.75 45 a2.25 2.25 0 1 0 4.5 0 a2.25 2.25 0 1 0 -4.5 0zM222.75 99 a2.25 2.25 0 1 0 4.5 0 a2.25 2.25 0 1 0 -4.5 0zM78.75 135 a2.25 2.25 0 1 0 4.5 0 a2.25 2.25 0 1 0 -4.5 0zM258.75 135 a2.25 2.25 0 1 0 4.5 0 a2.25 2.25 0 1 0 -4.5 0zM510.75 117 a2.25 2.25 0 1 0 4.5 0 a2.25 2.25 0 1 0 -4.5 0z" fill="black"></path><path d="M978.75 513 a2.25 2.25 0 1 0 4.5 0 a2.25 2.25 0 1 0 -4.5 0zM240.75 477 a2.25 2.25 0 1 0 4.5 0 a2.25 2.25 0 1 0 -4.5 0zM510.75 531 a2.25 2.25 0 1 0 4.5 0 a2.25 2.25 0 1 0 -4.5 0zM366.75 531 a2.25 2.25 0 1 0 4.5 0 a2.25 2.25 0 1 0 -4.5 0zM1014.75 531 a2.25 2.25 0 1 0 4.5 0 a2.25 2.25 0 1 0 -4.5 0zM582.75 513 a2.25 2.25 0 1 0 4.5 0 a2.25 2.25 0 1 0 -4.5 0zM924.75 513 a2.25 2.25 0 1 0 4.5 0 a2.25 2.25 0 1 0 -4.5 0zM834.75 513 a2.25 2.25 0 1 0 4.5 0 a2.25 2.25 0 1 0 -4.5 0zM690.75 531 a2.25 2.25 0 1 0 4.5 0 a2.25 2.25 0 1 0 -4.5 0zM780.75 513 a2.25 2.25 0 1 0 4.5 0 a2.25 2.25 0 1 0 -4.5 0zM618.75 513 a2.25 2.25 0 1 0 4.5 0 a2.25 2.25 0 1 0 -4.5 0zM438.75 495 a2.25 2.25 0 1 0 4.5 0 a2.25 2.25 0 1 0 -4.5 0zM492.75 513 a2.25 2.25 0 1 0 4.5 0 a2.25 2.25 0 1 0 -4.5 0zM150.75 441 a2.25 2.25 0 1 0 4.5 0 a2.25 2.25 0 1 0 -4.5 0zM420.75 495 a2.25 2.25 0 1 0 4.5 0 a2.25 2.25 0 1 0 -4.5 0z" fill="black"></path><path d="M474.75 63 a2.25 2.25 0 1 0 4.5 0 a2.25 2.25 0 1 0 -4.5 0zM204.75 99 a2.25 2.25 0 1 0 4.5 0 a2.25 2.25 0 1 0 -4.5 0zM276.75 63 a2.25 2.25 0 1 0 4.5 0 a2.25 2.25 0 1 0 -4.5 0zM42.75 99 a2.25 2.25 0 1 0 4.5 0 a2.25 2.25 0 1 0 -4.5 0zM114.75 135 a2.25 2.25 0 1 0 4.5 0 a2.25 2.25 0 1 0 -4.5 0zM168.75 63 a2.25 2.25 0 1 0 4.5 0 a2.25 2.25 0 1 0 -4.5 0zM150.75 63 a2.25 2.25 0 1 0 4.5 0 a2.25 2.25 0 1 0 -4.5 0zM528.75 63 a2.25 2.25 0 1 0 4.5 0 a2.25 2.25 0 1 0 -4.5 0z" fill="black"></path></mask></defs></svg>